<?xml version="1.0" encoding="utf-8"?>
<svg xmlns="http://www.w3.org/2000/svg" xmlns:xlink="http://www.w3.org/1999/xlink" style="margin: auto; background: rgb(36, 36, 36); display: block; shape-rendering: auto;" width="217px" height="217px" viewBox="0 0 100 100" preserveAspectRatio="xMidYMid">
<g transform="rotate(0 50 50)">
  <rect x="29" y="36.5" rx="12.6" ry="0.5" width="42" height="1" fill="#fc3571">
    <animate attributeName="opacity" values="1;0" keyTimes="0;1" dur="2s" begin="-1.9090909090909092s" repeatCount="indefinite"></animate>
  </rect>
</g><g transform="rotate(16.363636363636363 50 50)">
  <rect x="29" y="36.5" rx="12.6" ry="0.5" width="42" height="1" fill="#fc3571">
    <animate attributeName="opacity" values="1;0" keyTimes="0;1" dur="2s" begin="-1.8181818181818181s" repeatCount="indefinite"></animate>
  </rect>
</g><g transform="rotate(32.72727272727273 50 50)">
  <rect x="29" y="36.5" rx="12.6" ry="0.5" width="42" height="1" fill="#fc3571">
    <animate attributeName="opacity" values="1;0" keyTimes="0;1" dur="2s" begin="-1.7272727272727273s" repeatCount="indefinite"></animate>
  </rect>
</g><g transform="rotate(49.09090909090909 50 50)">
  <rect x="29" y="36.5" rx="12.6" ry="0.5" width="42" height="1" fill="#fc3571">
    <animate attributeName="opacity" values="1;0" keyTimes="0;1" dur="2s" begin="-1.6363636363636365s" repeatCount="indefinite"></animate>
  </rect>
</g><g transform="rotate(65.45454545454545 50 50)">
  <rect x="29" y="36.5" rx="12.6" ry="0.5" width="42" height="1" fill="#fc3571">
    <animate attributeName="opacity" values="1;0" keyTimes="0;1" dur="2s" begin="-1.5454545454545454s" repeatCount="indefinite"></animate>
  </rect>
</g><g transform="rotate(81.81818181818181 50 50)">
  <rect x="29" y="36.5" rx="12.6" ry="0.5" width="42" height="1" fill="#fc3571">
    <animate attributeName="opacity" values="1;0" keyTimes="0;1" dur="2s" begin="-1.4545454545454546s" repeatCount="indefinite"></animate>
  </rect>
</g><g transform="rotate(98.18181818181819 50 50)">
  <rect x="29" y="36.5" rx="12.6" ry="0.5" width="42" height="1" fill="#fc3571">
    <animate attributeName="opacity" values="1;0" keyTimes="0;1" dur="2s" begin="-1.3636363636363635s" repeatCount="indefinite"></animate>
  </rect>
</g><g transform="rotate(114.54545454545455 50 50)">
  <rect x="29" y="36.5" rx="12.6" ry="0.5" width="42" height="1" fill="#fc3571">
    <animate attributeName="opacity" values="1;0" keyTimes="0;1" dur="2s" begin="-1.2727272727272727s" repeatCount="indefinite"></animate>
  </rect>
</g><g transform="rotate(130.9090909090909 50 50)">
  <rect x="29" y="36.5" rx="12.6" ry="0.5" width="42" height="1" fill="#fc3571">
    <animate attributeName="opacity" values="1;0" keyTimes="0;1" dur="2s" begin="-1.1818181818181819s" repeatCount="indefinite"></animate>
  </rect>
</g><g transform="rotate(147.27272727272728 50 50)">
  <rect x="29" y="36.5" rx="12.6" ry="0.5" width="42" height="1" fill="#fc3571">
    <animate attributeName="opacity" values="1;0" keyTimes="0;1" dur="2s" begin="-1.0909090909090908s" repeatCount="indefinite"></animate>
  </rect>
</g><g transform="rotate(163.63636363636363 50 50)">
  <rect x="29" y="36.5" rx="12.6" ry="0.5" width="42" height="1" fill="#fc3571">
    <animate attributeName="opacity" values="1;0" keyTimes="0;1" dur="2s" begin="-1s" repeatCount="indefinite"></animate>
  </rect>
</g><g transform="rotate(180 50 50)">
  <rect x="29" y="36.5" rx="12.6" ry="0.5" width="42" height="1" fill="#fc3571">
    <animate attributeName="opacity" values="1;0" keyTimes="0;1" dur="2s" begin="-0.9090909090909091s" repeatCount="indefinite"></animate>
  </rect>
</g><g transform="rotate(196.36363636363637 50 50)">
  <rect x="29" y="36.5" rx="12.6" ry="0.5" width="42" height="1" fill="#fc3571">
    <animate attributeName="opacity" values="1;0" keyTimes="0;1" dur="2s" begin="-0.8181818181818182s" repeatCount="indefinite"></animate>
  </rect>
</g><g transform="rotate(212.72727272727272 50 50)">
  <rect x="29" y="36.5" rx="12.6" ry="0.5" width="42" height="1" fill="#fc3571">
    <animate attributeName="opacity" values="1;0" keyTimes="0;1" dur="2s" begin="-0.7272727272727273s" repeatCount="indefinite"></animate>
  </rect>
</g><g transform="rotate(229.0909090909091 50 50)">
  <rect x="29" y="36.5" rx="12.6" ry="0.5" width="42" height="1" fill="#fc3571">
    <animate attributeName="opacity" values="1;0" keyTimes="0;1" dur="2s" begin="-0.6363636363636364s" repeatCount="indefinite"></animate>
  </rect>
</g><g transform="rotate(245.45454545454547 50 50)">
  <rect x="29" y="36.5" rx="12.6" ry="0.5" width="42" height="1" fill="#fc3571">
    <animate attributeName="opacity" values="1;0" keyTimes="0;1" dur="2s" begin="-0.5454545454545454s" repeatCount="indefinite"></animate>
  </rect>
</g><g transform="rotate(261.8181818181818 50 50)">
  <rect x="29" y="36.5" rx="12.6" ry="0.5" width="42" height="1" fill="#fc3571">
    <animate attributeName="opacity" values="1;0" keyTimes="0;1" dur="2s" begin="-0.45454545454545453s" repeatCount="indefinite"></animate>
  </rect>
</g><g transform="rotate(278.1818181818182 50 50)">
  <rect x="29" y="36.5" rx="12.6" ry="0.5" width="42" height="1" fill="#fc3571">
    <animate attributeName="opacity" values="1;0" keyTimes="0;1" dur="2s" begin="-0.36363636363636365s" repeatCount="indefinite"></animate>
  </rect>
</g><g transform="rotate(294.54545454545456 50 50)">
  <rect x="29" y="36.5" rx="12.6" ry="0.5" width="42" height="1" fill="#fc3571">
    <animate attributeName="opacity" values="1;0" keyTimes="0;1" dur="2s" begin="-0.2727272727272727s" repeatCount="indefinite"></animate>
  </rect>
</g><g transform="rotate(310.90909090909093 50 50)">
  <rect x="29" y="36.5" rx="12.6" ry="0.5" width="42" height="1" fill="#fc3571">
    <animate attributeName="opacity" values="1;0" keyTimes="0;1" dur="2s" begin="-0.18181818181818182s" repeatCount="indefinite"></animate>
  </rect>
</g><g transform="rotate(327.27272727272725 50 50)">
  <rect x="29" y="36.5" rx="12.6" ry="0.5" width="42" height="1" fill="#fc3571">
    <animate attributeName="opacity" values="1;0" keyTimes="0;1" dur="2s" begin="-0.09090909090909091s" repeatCount="indefinite"></animate>
  </rect>
</g><g transform="rotate(343.6363636363636 50 50)">
  <rect x="29" y="36.5" rx="12.6" ry="0.5" width="42" height="1" fill="#fc3571">
    <animate attributeName="opacity" values="1;0" keyTimes="0;1" dur="2s" begin="0s" repeatCount="indefinite"></animate>
  </rect>
</g>
<!-- [ldio] generated by https://loading.io/ --></svg>